<?xml version="1.0" encoding="utf-8"?>
<!-- Generator: Adobe Illustrator 21.0.0, SVG Export Plug-In . SVG Version: 6.00 Build 0)  -->
<svg version="1.1" xmlns="http://www.w3.org/2000/svg" xmlns:xlink="http://www.w3.org/1999/xlink" x="0px" y="0px"
	 viewBox="0 0 767.5 344.6" style="enable-background:new 0 0 767.5 344.6;" xml:space="preserve">
<style type="text/css">
	.st0{fill-rule:evenodd;clip-rule:evenodd;fill:#FBB12A;}
	.st1{fill-rule:evenodd;clip-rule:evenodd;fill:#FDB12A;}
	.st2{fill:#64829C;}
	.st3{font-family:'OpenSans';}
	.st4{font-size:34.56px;}
</style>
<g id="Логотип_1_">
	<g id="Фигура_43">
		<g>
			<polygon class="st0" points="126.2,215.5 126.2,221.3 265.4,221.3 277.4,215.5 			"/>
		</g>
	</g>
	<g id="Фигура_43_копия">
		<g>
			<polygon class="st0" points="476.6,215.5 488.6,221.3 635.5,221.3 635.5,215.5 			"/>
		</g>
	</g>
	<g id="Right_1_">
		<g id="Фигура_24__x2B__Фигура_25_xA0_Image_1_">
			
				<image style="overflow:visible;" width="83" height="111" id="Фигура_24__x2B__Фигура_25_xA0_Image" xlink:href="D56B2402.png"  transform="matrix(0.48 0 0 0.48 419.52 154.56)">
			</image>
		</g>
	</g>
	<g id="Left_1_">
		<g id="Фигура_281__x2B__Фигура_36_xA0_Image_1_">
			
				<image style="overflow:visible;" width="125" height="182" id="Фигура_281__x2B__Фигура_36_xA0_Image" xlink:href="D56B2406.png"  transform="matrix(0.48 0 0 0.48 288.48 119.52)">
			</image>
		</g>
	</g>
	<g id="Center_1_">
		<g id="Фигура_10__x2B__Фигура_12_xA0_Image_1_">
			
				<image style="overflow:visible;" width="145" height="236" id="Фигура_10__x2B__Фигура_12_xA0_Image" xlink:href="D56B2401.png"  transform="matrix(0.48 0 0 0.48 349.92 80.16)">
			</image>
		</g>
	</g>
	<g id="Фигура_41">
		<g>
			<path class="st1" d="M254.6,231.7c0,0,56.8-22.8,123-21.6c76,1.3,116.4,19,117.9,19.8C365.2,161.6,254.6,231.7,254.6,231.7z"/>
		</g>
	</g>
</g>
<g id="Уральская_торговая_компания">
	<text transform="matrix(1 0 0 1 125.7742 266.6716)" class="st2 st3 st4">Уральская торговая компания</text>
</g>
</svg>
